<?xml version="1.0" encoding="iso-8859-1"?>
<!-- Generator: Adobe Illustrator 19.0.0, SVG Export Plug-In . SVG Version: 6.00 Build 0)  -->
<svg version="1.1" id="Capa_1" xmlns="http://www.w3.org/2000/svg" xmlns:xlink="http://www.w3.org/1999/xlink" x="0px" y="0px"
	 viewBox="0 0 464.126 464.126" style="enable-background:new 0 0 464.126 464.126;" xml:space="preserve">
<path style="fill:#322153;" d="M39.656,180.239c4.416,0,8-3.576,8-8v-8h8c4.416,0,8-3.576,8-8s-3.584-8-8-8h-8v-8
	c0-4.424-3.584-8-8-8s-8,3.576-8,8v8h-8c-4.416,0-8,3.576-8,8s3.584,8,8,8h8v8C31.656,176.663,35.24,180.239,39.656,180.239z"/>
<g>
	<path style="fill:#00F2A9;" d="M103.856,364.063c-26.472,0-47.928,21.448-47.928,47.912c0,5.608,1.016,10.968,2.784,15.968
		c6.584,18.6,24.28,31.944,45.144,31.944s38.552-13.344,45.136-31.944c1.768-5,2.784-10.36,2.784-15.968
		C151.784,385.519,130.32,364.063,103.856,364.063z"/>
	<path style="fill:#00F2A9;" d="M279.584,411.975c0,5.608,1.016,10.968,2.784,15.968c6.584,18.6,24.28,31.944,45.144,31.944
		s38.552-13.344,45.144-31.944c1.768-5,2.784-10.36,2.784-15.968c0-26.464-21.456-47.912-47.928-47.912
		S279.584,385.519,279.584,411.975z"/>
	<path style="fill:#00F2A9;" d="M346.224,95.295c-24.952,24.952-24.952,65.4,0,90.344c24.952,24.952,65.416,24.952,90.368,0
		c24.952-24.952,18.712-109.056,18.712-109.056S371.176,70.351,346.224,95.295z"/>
	<path style="fill:#00F2A9;" d="M143.656,28.239c0,13.232,10.768,24,24,24s24-10.768,24-24s-10.768-24-24-24
		S143.656,15.007,143.656,28.239z M175.656,28.239c0,4.416-3.592,8-8,8c-4.408,0-8-3.584-8-8s3.592-8,8-8
		C172.064,20.239,175.656,23.823,175.656,28.239z"/>
</g>
<path style="fill:#322153;" d="M455.904,36.607c-8.976-0.656-88.552-5.736-115.336,21.032
	c-13.584,13.576-21.064,31.544-21.064,50.744c0,8.296,1.472,15.856,4.152,23.856H184.848c-13.392,0-25.816,6.736-33.24,17.872
	l-54.416,81.648c-0.488,0.736-0.8,1.56-1.024,2.392C40.568,251.151,0,303.063,0,364.143c0,22.024,17.92,40.104,39.952,40.104h13.592
	c9.192,16,28.664,31.944,50.312,31.944s41.112-15.952,50.312-31.952H277.2c9.2,16,28.656,31.944,50.312,31.944
	s41.104-15.944,50.304-31.944h13.592c22.032,0,40.248-18.208,40.248-40.232v-95.824c0-22.024-18.216-39.944-40.248-39.944h-23.752
	v-52.08c8,2.72,15.736,4.168,23.848,4.168c18.416,0,36.776-7.008,50.792-21.024c26.776-26.776,21.68-106.328,21.016-115.312
	C463.024,40.039,459.856,36.895,455.904,36.607z M118.808,228.239l46.12-69.248c4.448-6.68,11.904-10.752,19.928-10.752h38.8v80
	h-87.848H118.808z M104.96,419.895c-16.848,0-32.512-10.696-38.152-26.616c-1.544-4.352-2.6-8.832-2.6-13.296
	c0-22.008,17.776-39.912,39.784-39.912s40.96,17.904,40.96,39.912c0,4.464-1.296,8.936-1.296,13.296c0,0.008,0,0.008,0,0.016
	C135.656,409.207,121.8,419.895,104.96,419.895z M327.504,419.895c-16.848,0-31.96-10.696-37.6-26.616
	c-1.536-4.344-2.32-8.824-2.32-13.296c0-22.008,17.904-39.912,39.92-39.912s39.928,17.904,39.928,39.912
	c0,4.464-0.784,8.936-2.328,13.296C359.472,409.199,344.36,419.895,327.504,419.895z M415.656,268.183v95.824
	c0,13.2-11.04,24.232-24.248,24.232h-8.552c0.392,0,0.584-5.448,0.584-8.112c0-30.832-25.096-55.984-55.928-55.984
	s-55.92,25.192-55.92,56.024c0,2.664,0.192,8.08,0.584,8.08H159.2c0.392,0,0.584-5.448,0.584-8.112
	c0-30.832-25.088-55.984-55.928-55.984s-55.928,25.192-55.928,56.024c0,2.664,0.192,8.08,0.584,8.08h-8.56
	C26.744,388.255,16,377.367,16,364.167c0-66.04,53.744-119.912,119.8-119.912h223.656H391.4
	C404.616,244.239,415.656,254.983,415.656,268.183z M351.656,172.359v55.88h-112v-80h87.848c1.52,0,2.992,0.264,4.432,0.536
	c1.04,1.52,2.144,3.048,3.304,4.496l-17.272,17.288c-3.128,3.128-3.128,8.2,0,11.32c1.56,1.56,3.608,2.352,5.656,2.352
	s4.096-0.776,5.656-2.344l17.272-17.264c1.448,1.16,3.032,2.24,4.552,3.272C351.384,169.343,351.656,170.831,351.656,172.359z
	 M430.936,147.991c-17.984,17.952-45.216,21.056-66.44,9.416c-1.008-2.48-2.232-4.928-3.688-7.128l9.944-10.04h44.616
	c4.424,0,8-3.576,8-8s-3.576-8-8-8h-28.616l32.896-32.8c3.128-3.128,3.128-8.144,0-11.264s-8.08-3.104-11.208,0.024l-32.784,32.92
	v-28.6c0-4.424-3.576-8-8-8s-8,3.576-8,8v44.6l-10.056,9.944c-2.216-1.472-4.648-2.696-7.144-3.704
	c-4.488-8.152-6.928-17.328-6.928-26.888c0-14.92,5.8-28.952,16.36-39.512c13.928-13.92,53.168-17.104,81.024-17.104
	c5.472,0,10.504,0.128,14.816,0.312C448.888,78.431,447.6,131.327,430.936,147.991z"/>
<g>
</g>
<g>
</g>
<g>
</g>
<g>
</g>
<g>
</g>
<g>
</g>
<g>
</g>
<g>
</g>
<g>
</g>
<g>
</g>
<g>
</g>
<g>
</g>
<g>
</g>
<g>
</g>
<g>
</g>
</svg>
