<svg id="Capa_1" enable-background="new 0 0 512 512" height="512" viewBox="0 0 512 512" width="512" xmlns="http://www.w3.org/2000/svg"><g id="XMLID_1096_"><path id="XMLID_1830_" d="m66.239 270h-20.877c-14.359 0-26-11.641-26-26 0-14.359 11.641-26 26-26h38 345.277 38c14.359 0 26 11.641 26 26 0 14.359-11.641 26-26 26h-20.877z" fill="#d8ec84"/><path id="XMLID_1829_" d="m108 502h-24c-11.046 0-20-8.954-20-20v-52h64v52c0 11.046-8.954 20-20 20z" fill="#98a1b3"/><path id="XMLID_1828_" d="m428 502h-24c-11.046 0-20-8.954-20-20v-52h64v52c0 11.046-8.954 20-20 20z" fill="#98a1b3"/><path id="XMLID_1624_" d="m85.5 270c-36.175 0-65.5 29.325-65.5 65.5v72c0 12.426 10.074 22.5 22.5 22.5h427c12.426 0 22.5-10.074 22.5-22.5v-72c0-36.175-29.325-65.5-65.5-65.5z" fill="#d8ec84"/><g id="XMLID_1614_" fill="#f5737f"><circle id="XMLID_1618_" cx="102" cy="350" r="32"/><circle id="XMLID_1617_" cx="410" cy="350" r="32"/></g><path id="XMLID_1652_" d="m443.201 270-29.71-117.783c-4.482-17.767-20.462-30.217-38.786-30.217h-231.042c-18.323 0-34.304 12.45-38.785 30.217l-29.71 117.783z" fill="#f9fceb"/><path id="XMLID_1623_" d="m184 326h144v48h-144z" fill="#f9fceb"/><path id="XMLID_1760_" d="m368.037 10h-34.636c-42.727 0-77.364 34.637-77.364 77.364v34.636h34.636c42.727 0 77.364-34.637 77.364-77.364z" fill="#d8ec84"/><path id="XMLID_1714_" d="m144.037 10h34.636c42.727 0 77.364 34.637 77.364 77.364v34.636h-34.636c-42.727 0-77.364-34.637-77.364-77.364z" fill="#d8ec84"/><g id="XMLID_166_"><path id="XMLID_187_" d="m102 308c-23.159 0-42 18.841-42 42s18.841 42 42 42 42-18.841 42-42-18.841-42-42-42zm0 64c-12.131 0-22-9.869-22-22s9.869-22 22-22 22 9.869 22 22-9.869 22-22 22z"/><path id="XMLID_1111_" d="m452 350c0-23.159-18.841-42-42-42s-42 18.841-42 42 18.841 42 42 42 42-18.841 42-42zm-64 0c0-12.131 9.869-22 22-22s22 9.869 22 22-9.869 22-22 22-22-9.869-22-22z"/><path id="XMLID_1140_" d="m476.168 278.71c15.239-4.189 26.47-18.159 26.47-34.71 0-19.851-16.149-36-36-36h-28.764l-14.688-58.229c-5.609-22.239-25.545-37.771-48.481-37.771h-28.462c19.407-16.037 31.794-40.281 31.794-67.364v-34.636c0-5.523-4.478-10-10-10h-34.637c-33.545 0-62.729 19.008-77.363 46.815-14.634-27.807-43.818-46.815-77.363-46.815h-34.637c-5.522 0-10 4.477-10 10v34.636c0 27.083 12.388 51.327 31.794 67.364h-22.168c-22.935 0-42.871 15.532-48.481 37.771l-14.688 58.229h-35.133c-19.851 0-36 16.149-36 36 0 16.552 11.231 30.521 26.47 34.71-15.815 13.849-25.831 34.166-25.831 56.79v72c0 17.92 14.579 32.5 32.5 32.5h11.5v42c0 16.542 13.458 30 30 30h24c16.542 0 30-13.458 30-30v-42h73c5.522 0 10-4.477 10-10s-4.478-10-10-10h-168.5c-6.893 0-12.5-5.607-12.5-12.5v-72c0-30.603 24.897-55.5 55.5-55.5h341c30.603 0 55.5 24.897 55.5 55.5v72c0 6.893-5.607 12.5-12.5 12.5h-168.5c-5.522 0-10 4.477-10 10s4.478 10 10 10h73v42c0 16.542 13.458 30 30 30h24c16.542 0 30-13.458 30-30v-42h11.5c17.921 0 32.5-14.58 32.5-32.5v-72c0-22.624-10.017-42.941-25.832-56.79zm-358.168 161.29v42c0 5.514-4.486 10-10 10h-24c-5.514 0-10-4.486-10-10v-42zm348.639-212c8.822 0 16 7.178 16 16s-7.178 16-16 16h-15.647l-8.072-32zm-84.524-95.073-127.073 127.073h-87.232l127.999-128h78.896c2.546 0 5.029.323 7.41.927zm-48.715-112.927h24.637v24.636c0 37.145-30.219 67.364-67.363 67.364h-10.494l38.929-38.929c3.905-3.905 3.905-10.237 0-14.143-3.906-3.905-10.236-3.905-14.143 0l-38.929 38.929v-10.493c0-37.145 30.219-67.364 67.363-67.364zm-179.363 24.636v-24.636h24.637c37.145 0 67.363 30.219 67.363 67.364v10.494l-38.929-38.929c-3.906-3.905-10.236-3.905-14.143 0-3.905 3.905-3.905 10.237 0 14.143l38.93 38.928h-10.495c-37.144 0-67.363-30.219-67.363-67.364zm-39.463 110.027c3.366-13.344 15.328-22.663 29.089-22.663h123.861l-128 128h-51.52zm-85.213 89.337c0-8.822 7.178-16 16-16h30.088l-8.072 32h-22.016c-8.822 0-16-7.178-16-16zm253.966 16 115.63-115.63c2.2 3.027 3.877 6.489 4.836 10.293l26.597 105.437c-1.289-.066-2.586-.099-3.891-.099h-143.172zm154.673 222c0 5.514-4.486 10-10 10h-24c-5.514 0-10-4.486-10-10v-42h44z"/><path id="XMLID_1681_" d="m338 374v-48c0-5.523-4.478-10-10-10h-144c-5.522 0-10 4.477-10 10v48c0 5.523 4.478 10 10 10h144c5.522 0 10-4.477 10-10zm-20-10h-124v-28h124z"/><path id="XMLID_1685_" d="m256 420c-2.63 0-5.21 1.07-7.07 2.93s-2.93 4.44-2.93 7.07 1.069 5.21 2.93 7.07 4.44 2.93 7.07 2.93 5.21-1.07 7.069-2.93c1.86-1.86 2.931-4.44 2.931-7.07s-1.07-5.21-2.931-7.07c-1.859-1.86-4.439-2.93-7.069-2.93z"/></g></g></svg>